<mxfile host="app.diagrams.net" modified="2023-06-27T07:22:39.676Z" agent="Mozilla/5.0 (Windows NT 10.0; Win64; x64) AppleWebKit/537.36 (KHTML, like Gecko) Chrome/114.0.0.0 Safari/537.36" etag="dMOeGc3v5XiT8X2tKQAr" version="21.5.1" type="device">
  <diagram name="Page-1" id="b5b7bab2-c9e2-2cf4-8b2a-24fd1a2a6d21">
    <mxGraphModel dx="1009" dy="926" grid="1" gridSize="10" guides="1" tooltips="1" connect="1" arrows="1" fold="1" page="1" pageScale="1" pageWidth="827" pageHeight="1169" background="none" math="0" shadow="0">
      <root>
        <mxCell id="0" />
        <mxCell id="1" parent="0" />
        <mxCell id="cTThmHPJOHlPgZETZRBA-1" value="Actor" style="shape=umlActor;verticalLabelPosition=bottom;verticalAlign=top;html=1;" vertex="1" parent="1">
          <mxGeometry x="90" y="80" width="30" height="60" as="geometry" />
        </mxCell>
        <mxCell id="cTThmHPJOHlPgZETZRBA-3" value="Use Case" style="ellipse;whiteSpace=wrap;html=1;" vertex="1" parent="1">
          <mxGeometry x="190" y="75" width="140" height="70" as="geometry" />
        </mxCell>
        <mxCell id="cTThmHPJOHlPgZETZRBA-7" value="&amp;lt;&amp;lt; include &amp;gt;&amp;gt;" style="endArrow=open;endSize=12;dashed=1;html=1;rounded=0;" edge="1" parent="1">
          <mxGeometry y="10" width="160" relative="1" as="geometry">
            <mxPoint x="80" y="240" as="sourcePoint" />
            <mxPoint x="240" y="240" as="targetPoint" />
            <mxPoint as="offset" />
          </mxGeometry>
        </mxCell>
        <mxCell id="cTThmHPJOHlPgZETZRBA-8" value="" style="endArrow=open;endFill=1;endSize=12;html=1;rounded=0;" edge="1" parent="1">
          <mxGeometry width="160" relative="1" as="geometry">
            <mxPoint x="80" y="200" as="sourcePoint" />
            <mxPoint x="240" y="200" as="targetPoint" />
          </mxGeometry>
        </mxCell>
        <mxCell id="cTThmHPJOHlPgZETZRBA-9" value="&amp;lt;&amp;lt; extend &amp;gt;&amp;gt;" style="endArrow=open;endSize=12;dashed=1;html=1;rounded=0;" edge="1" parent="1">
          <mxGeometry y="10" width="160" relative="1" as="geometry">
            <mxPoint x="80" y="280" as="sourcePoint" />
            <mxPoint x="240" y="280" as="targetPoint" />
            <mxPoint as="offset" />
          </mxGeometry>
        </mxCell>
        <mxCell id="cTThmHPJOHlPgZETZRBA-10" value="" style="endArrow=block;endSize=16;endFill=0;html=1;rounded=0;" edge="1" parent="1">
          <mxGeometry width="160" relative="1" as="geometry">
            <mxPoint x="80" y="310" as="sourcePoint" />
            <mxPoint x="240" y="310" as="targetPoint" />
          </mxGeometry>
        </mxCell>
        <mxCell id="cTThmHPJOHlPgZETZRBA-12" value="규칙 1. 연관관계(실선 화살표)는&lt;br&gt;엑터 -&amp;gt; 유스케이스&lt;br&gt;유스케이스-&amp;gt; 엑터&lt;br&gt;위 형식만 가능하다" style="text;html=1;align=center;verticalAlign=middle;resizable=0;points=[];autosize=1;strokeColor=none;fillColor=none;" vertex="1" parent="1">
          <mxGeometry x="360" y="40" width="200" height="70" as="geometry" />
        </mxCell>
        <mxCell id="cTThmHPJOHlPgZETZRBA-14" value="Actor" style="shape=umlActor;verticalLabelPosition=bottom;verticalAlign=top;html=1;" vertex="1" parent="1">
          <mxGeometry x="350" y="190" width="30" height="60" as="geometry" />
        </mxCell>
        <mxCell id="cTThmHPJOHlPgZETZRBA-15" value="Use Case" style="ellipse;whiteSpace=wrap;html=1;" vertex="1" parent="1">
          <mxGeometry x="550" y="185" width="140" height="70" as="geometry" />
        </mxCell>
        <mxCell id="cTThmHPJOHlPgZETZRBA-16" value="" style="endArrow=open;endFill=1;endSize=12;html=1;rounded=0;" edge="1" parent="1" source="cTThmHPJOHlPgZETZRBA-14">
          <mxGeometry width="160" relative="1" as="geometry">
            <mxPoint x="420" y="220" as="sourcePoint" />
            <mxPoint x="550" y="219.5" as="targetPoint" />
          </mxGeometry>
        </mxCell>
        <mxCell id="cTThmHPJOHlPgZETZRBA-17" value="Use Case" style="ellipse;whiteSpace=wrap;html=1;" vertex="1" parent="1">
          <mxGeometry x="310" y="350" width="140" height="70" as="geometry" />
        </mxCell>
        <mxCell id="cTThmHPJOHlPgZETZRBA-18" value="Actor" style="shape=umlActor;verticalLabelPosition=bottom;verticalAlign=top;html=1;" vertex="1" parent="1">
          <mxGeometry x="650" y="355" width="30" height="60" as="geometry" />
        </mxCell>
        <mxCell id="cTThmHPJOHlPgZETZRBA-19" value="" style="endArrow=open;endFill=1;endSize=12;html=1;rounded=0;" edge="1" parent="1" target="cTThmHPJOHlPgZETZRBA-18">
          <mxGeometry width="160" relative="1" as="geometry">
            <mxPoint x="450" y="385" as="sourcePoint" />
            <mxPoint x="630" y="385" as="targetPoint" />
          </mxGeometry>
        </mxCell>
        <mxCell id="cTThmHPJOHlPgZETZRBA-24" value="규칙2. 포함 확장관계는&lt;br&gt;&lt;span style=&quot;white-space: pre;&quot;&gt;&#x9;&lt;/span&gt;&lt;span style=&quot;white-space: pre;&quot;&gt;&#x9;&lt;/span&gt;&lt;span style=&quot;white-space: pre;&quot;&gt;&#x9;&lt;/span&gt;&lt;span style=&quot;white-space: pre;&quot;&gt;&#x9;&lt;/span&gt;유스케이스 끼리만 가능하다!!" style="text;html=1;align=center;verticalAlign=middle;resizable=0;points=[];autosize=1;strokeColor=none;fillColor=none;" vertex="1" parent="1">
          <mxGeometry x="125" y="445" width="290" height="40" as="geometry" />
        </mxCell>
        <mxCell id="cTThmHPJOHlPgZETZRBA-25" value="내정보 조회" style="ellipse;whiteSpace=wrap;html=1;" vertex="1" parent="1">
          <mxGeometry x="270" y="500" width="140" height="70" as="geometry" />
        </mxCell>
        <mxCell id="cTThmHPJOHlPgZETZRBA-26" value="로그인" style="ellipse;whiteSpace=wrap;html=1;" vertex="1" parent="1">
          <mxGeometry x="550" y="500" width="140" height="70" as="geometry" />
        </mxCell>
        <mxCell id="cTThmHPJOHlPgZETZRBA-27" value="&amp;lt;&amp;lt; include &amp;gt;&amp;gt;" style="endArrow=open;endSize=12;dashed=1;html=1;rounded=0;exitX=1;exitY=0.5;exitDx=0;exitDy=0;" edge="1" parent="1" source="cTThmHPJOHlPgZETZRBA-25">
          <mxGeometry y="15" width="160" relative="1" as="geometry">
            <mxPoint x="416.5" y="534.5" as="sourcePoint" />
            <mxPoint x="550" y="535" as="targetPoint" />
            <mxPoint as="offset" />
          </mxGeometry>
        </mxCell>
        <mxCell id="cTThmHPJOHlPgZETZRBA-28" value="회원가입" style="ellipse;whiteSpace=wrap;html=1;" vertex="1" parent="1">
          <mxGeometry x="270" y="610" width="140" height="70" as="geometry" />
        </mxCell>
        <mxCell id="cTThmHPJOHlPgZETZRBA-29" value="프로필 사진 등록" style="ellipse;whiteSpace=wrap;html=1;" vertex="1" parent="1">
          <mxGeometry x="550" y="610" width="140" height="70" as="geometry" />
        </mxCell>
        <mxCell id="cTThmHPJOHlPgZETZRBA-31" value="&amp;lt;&amp;lt; extend &amp;gt;&amp;gt;" style="endArrow=open;endSize=12;dashed=1;html=1;rounded=0;entryX=1;entryY=0.5;entryDx=0;entryDy=0;" edge="1" parent="1" target="cTThmHPJOHlPgZETZRBA-28">
          <mxGeometry y="15" width="160" relative="1" as="geometry">
            <mxPoint x="550" y="645" as="sourcePoint" />
            <mxPoint x="370" y="640" as="targetPoint" />
            <mxPoint as="offset" />
          </mxGeometry>
        </mxCell>
        <mxCell id="cTThmHPJOHlPgZETZRBA-33" value="규칙3. 일반화 관계는&lt;br&gt;&lt;span style=&quot;white-space: pre;&quot;&gt;&#x9;&lt;/span&gt;&lt;span style=&quot;white-space: pre;&quot;&gt;&#x9;&lt;/span&gt;&lt;span style=&quot;white-space: pre;&quot;&gt;&#x9;&lt;/span&gt;&lt;span style=&quot;white-space: pre;&quot;&gt;&#x9;&lt;/span&gt;&lt;span style=&quot;white-space: pre;&quot;&gt;&#x9;&lt;/span&gt;&lt;span style=&quot;white-space: pre;&quot;&gt;&#x9;&lt;/span&gt;&lt;span style=&quot;white-space: pre;&quot;&gt;&#x9;&lt;/span&gt;&amp;nbsp; 엑터끼리 또는 유스케이스 끼리만 가능하다!" style="text;html=1;align=center;verticalAlign=middle;resizable=0;points=[];autosize=1;strokeColor=none;fillColor=none;" vertex="1" parent="1">
          <mxGeometry x="45" y="703" width="450" height="40" as="geometry" />
        </mxCell>
        <mxCell id="cTThmHPJOHlPgZETZRBA-34" value="제목검색" style="ellipse;whiteSpace=wrap;html=1;" vertex="1" parent="1">
          <mxGeometry x="270" y="760" width="140" height="70" as="geometry" />
        </mxCell>
        <mxCell id="cTThmHPJOHlPgZETZRBA-35" value="내용 검색" style="ellipse;whiteSpace=wrap;html=1;" vertex="1" parent="1">
          <mxGeometry x="270" y="884.5699999999999" width="140" height="70" as="geometry" />
        </mxCell>
        <mxCell id="cTThmHPJOHlPgZETZRBA-36" value="게시글 검색" style="ellipse;whiteSpace=wrap;html=1;" vertex="1" parent="1">
          <mxGeometry x="550" y="829.9999999999999" width="140" height="70" as="geometry" />
        </mxCell>
        <mxCell id="cTThmHPJOHlPgZETZRBA-37" value="" style="endArrow=block;endSize=16;endFill=0;html=1;rounded=0;entryX=0.021;entryY=0.371;entryDx=0;entryDy=0;entryPerimeter=0;" edge="1" parent="1" target="cTThmHPJOHlPgZETZRBA-36">
          <mxGeometry width="160" relative="1" as="geometry">
            <mxPoint x="410" y="790" as="sourcePoint" />
            <mxPoint x="570" y="790" as="targetPoint" />
          </mxGeometry>
        </mxCell>
        <mxCell id="cTThmHPJOHlPgZETZRBA-38" value="" style="endArrow=block;endSize=16;endFill=0;html=1;rounded=0;" edge="1" parent="1" target="cTThmHPJOHlPgZETZRBA-36">
          <mxGeometry width="160" relative="1" as="geometry">
            <mxPoint x="410" y="920" as="sourcePoint" />
            <mxPoint x="553" y="986" as="targetPoint" />
          </mxGeometry>
        </mxCell>
        <mxCell id="cTThmHPJOHlPgZETZRBA-39" value="화원" style="shape=umlActor;verticalLabelPosition=bottom;verticalAlign=top;html=1;" vertex="1" parent="1">
          <mxGeometry x="325" y="980" width="30" height="60" as="geometry" />
        </mxCell>
        <mxCell id="cTThmHPJOHlPgZETZRBA-42" value="비회원" style="shape=umlActor;verticalLabelPosition=bottom;verticalAlign=top;html=1;" vertex="1" parent="1">
          <mxGeometry x="325" y="1109" width="30" height="60" as="geometry" />
        </mxCell>
        <mxCell id="cTThmHPJOHlPgZETZRBA-44" value="사용자" style="shape=umlActor;verticalLabelPosition=bottom;verticalAlign=top;html=1;" vertex="1" parent="1">
          <mxGeometry x="605" y="1040" width="30" height="60" as="geometry" />
        </mxCell>
        <mxCell id="cTThmHPJOHlPgZETZRBA-46" value="" style="endArrow=block;endSize=16;endFill=0;html=1;rounded=0;" edge="1" parent="1">
          <mxGeometry width="160" relative="1" as="geometry">
            <mxPoint x="360" y="1150" as="sourcePoint" />
            <mxPoint x="600" y="1090" as="targetPoint" />
          </mxGeometry>
        </mxCell>
        <mxCell id="cTThmHPJOHlPgZETZRBA-47" value="공지사항 조회" style="ellipse;whiteSpace=wrap;html=1;" vertex="1" parent="1">
          <mxGeometry x="770" y="1035" width="140" height="70" as="geometry" />
        </mxCell>
        <mxCell id="cTThmHPJOHlPgZETZRBA-48" value="" style="endArrow=block;endSize=16;endFill=0;html=1;rounded=0;" edge="1" parent="1">
          <mxGeometry width="160" relative="1" as="geometry">
            <mxPoint x="360" y="1019.9999999999999" as="sourcePoint" />
            <mxPoint x="600" y="1065" as="targetPoint" />
          </mxGeometry>
        </mxCell>
        <mxCell id="cTThmHPJOHlPgZETZRBA-49" value="" style="endArrow=open;endFill=1;endSize=12;html=1;rounded=0;" edge="1" parent="1" target="cTThmHPJOHlPgZETZRBA-47">
          <mxGeometry width="160" relative="1" as="geometry">
            <mxPoint x="635" y="1068.26" as="sourcePoint" />
            <mxPoint x="770" y="1068" as="targetPoint" />
          </mxGeometry>
        </mxCell>
        <mxCell id="cTThmHPJOHlPgZETZRBA-50" value="비회원" style="shape=umlActor;verticalLabelPosition=bottom;verticalAlign=top;html=1;" vertex="1" parent="1">
          <mxGeometry x="45" y="1240" width="30" height="60" as="geometry" />
        </mxCell>
        <mxCell id="cTThmHPJOHlPgZETZRBA-52" value="회원가입" style="ellipse;whiteSpace=wrap;html=1;" vertex="1" parent="1">
          <mxGeometry x="250" y="1235" width="140" height="70" as="geometry" />
        </mxCell>
        <mxCell id="cTThmHPJOHlPgZETZRBA-54" value="" style="endArrow=open;endFill=1;endSize=12;html=1;rounded=0;entryX=0;entryY=0.5;entryDx=0;entryDy=0;" edge="1" parent="1" target="cTThmHPJOHlPgZETZRBA-52">
          <mxGeometry width="160" relative="1" as="geometry">
            <mxPoint x="80" y="1269.17" as="sourcePoint" />
            <mxPoint x="230" y="1269" as="targetPoint" />
          </mxGeometry>
        </mxCell>
        <mxCell id="cTThmHPJOHlPgZETZRBA-55" value="이메일 인증" style="ellipse;whiteSpace=wrap;html=1;" vertex="1" parent="1">
          <mxGeometry x="595" y="1235" width="140" height="70" as="geometry" />
        </mxCell>
        <mxCell id="cTThmHPJOHlPgZETZRBA-56" value="&amp;lt;&amp;lt; include &amp;gt;&amp;gt;" style="endArrow=open;endSize=12;dashed=1;html=1;rounded=0;exitX=1;exitY=0.5;exitDx=0;exitDy=0;entryX=0;entryY=0.5;entryDx=0;entryDy=0;" edge="1" parent="1" target="cTThmHPJOHlPgZETZRBA-55">
          <mxGeometry y="15" width="160" relative="1" as="geometry">
            <mxPoint x="390" y="1270" as="sourcePoint" />
            <mxPoint x="530" y="1270" as="targetPoint" />
            <mxPoint as="offset" />
          </mxGeometry>
        </mxCell>
        <mxCell id="cTThmHPJOHlPgZETZRBA-58" value="Gmail 서버" style="shape=umlActor;verticalLabelPosition=bottom;verticalAlign=top;html=1;" vertex="1" parent="1">
          <mxGeometry x="870" y="1240" width="30" height="60" as="geometry" />
        </mxCell>
        <mxCell id="cTThmHPJOHlPgZETZRBA-63" value="" style="endArrow=open;endFill=1;endSize=12;html=1;rounded=0;exitX=1;exitY=0.5;exitDx=0;exitDy=0;" edge="1" parent="1" source="cTThmHPJOHlPgZETZRBA-55" target="cTThmHPJOHlPgZETZRBA-58">
          <mxGeometry width="160" relative="1" as="geometry">
            <mxPoint x="740" y="1270" as="sourcePoint" />
            <mxPoint x="860" y="1270" as="targetPoint" />
          </mxGeometry>
        </mxCell>
        <mxCell id="cTThmHPJOHlPgZETZRBA-64" value="&amp;lt;&amp;lt; extend &amp;gt;&amp;gt;" style="endArrow=open;endSize=12;dashed=1;html=1;rounded=0;entryX=0.789;entryY=0.893;entryDx=0;entryDy=0;entryPerimeter=0;" edge="1" parent="1" target="cTThmHPJOHlPgZETZRBA-52">
          <mxGeometry x="-0.1171" y="4" width="160" relative="1" as="geometry">
            <mxPoint x="595" y="1384.41" as="sourcePoint" />
            <mxPoint x="455" y="1384.41" as="targetPoint" />
            <mxPoint as="offset" />
          </mxGeometry>
        </mxCell>
        <mxCell id="cTThmHPJOHlPgZETZRBA-65" value="프로필 사진 등록" style="ellipse;whiteSpace=wrap;html=1;" vertex="1" parent="1">
          <mxGeometry x="595" y="1350" width="140" height="70" as="geometry" />
        </mxCell>
        <mxCell id="cTThmHPJOHlPgZETZRBA-66" value="회원" style="shape=umlActor;verticalLabelPosition=bottom;verticalAlign=top;html=1;" vertex="1" parent="1">
          <mxGeometry x="45" y="1490" width="30" height="60" as="geometry" />
        </mxCell>
        <mxCell id="cTThmHPJOHlPgZETZRBA-69" value="사용자" style="shape=umlActor;verticalLabelPosition=bottom;verticalAlign=top;html=1;" vertex="1" parent="1">
          <mxGeometry x="190" y="1380" width="30" height="60" as="geometry" />
        </mxCell>
        <mxCell id="cTThmHPJOHlPgZETZRBA-72" value="" style="endArrow=block;endSize=16;endFill=0;html=1;rounded=0;" edge="1" parent="1" target="cTThmHPJOHlPgZETZRBA-69">
          <mxGeometry width="160" relative="1" as="geometry">
            <mxPoint x="80" y="1290" as="sourcePoint" />
            <mxPoint x="180" y="1370" as="targetPoint" />
          </mxGeometry>
        </mxCell>
        <mxCell id="cTThmHPJOHlPgZETZRBA-73" value="" style="endArrow=block;endSize=16;endFill=0;html=1;rounded=0;" edge="1" parent="1" target="cTThmHPJOHlPgZETZRBA-69">
          <mxGeometry width="160" relative="1" as="geometry">
            <mxPoint x="80" y="1500" as="sourcePoint" />
            <mxPoint x="185" y="1576" as="targetPoint" />
          </mxGeometry>
        </mxCell>
        <mxCell id="cTThmHPJOHlPgZETZRBA-74" value="공지사항 조회" style="ellipse;whiteSpace=wrap;html=1;" vertex="1" parent="1">
          <mxGeometry x="330" y="1380" width="140" height="70" as="geometry" />
        </mxCell>
        <mxCell id="cTThmHPJOHlPgZETZRBA-75" value="" style="endArrow=open;endFill=1;endSize=12;html=1;rounded=0;exitX=1;exitY=0.5;exitDx=0;exitDy=0;entryX=-0.017;entryY=0.402;entryDx=0;entryDy=0;entryPerimeter=0;" edge="1" parent="1" target="cTThmHPJOHlPgZETZRBA-74">
          <mxGeometry width="160" relative="1" as="geometry">
            <mxPoint x="230" y="1409.41" as="sourcePoint" />
            <mxPoint x="340" y="1409" as="targetPoint" />
          </mxGeometry>
        </mxCell>
        <mxCell id="cTThmHPJOHlPgZETZRBA-76" value="관리자" style="shape=umlActor;verticalLabelPosition=bottom;verticalAlign=top;html=1;" vertex="1" parent="1">
          <mxGeometry x="45" y="1370" width="30" height="60" as="geometry" />
        </mxCell>
        <mxCell id="cTThmHPJOHlPgZETZRBA-77" value="" style="endArrow=block;endSize=16;endFill=0;html=1;rounded=0;" edge="1" parent="1">
          <mxGeometry width="160" relative="1" as="geometry">
            <mxPoint x="80" y="1405" as="sourcePoint" />
            <mxPoint x="180" y="1405" as="targetPoint" />
          </mxGeometry>
        </mxCell>
        <mxCell id="cTThmHPJOHlPgZETZRBA-80" value="" style="endArrow=open;endFill=1;endSize=12;html=1;rounded=0;exitX=1;exitY=0.5;exitDx=0;exitDy=0;entryX=0.028;entryY=0.351;entryDx=0;entryDy=0;entryPerimeter=0;" edge="1" parent="1" target="cTThmHPJOHlPgZETZRBA-81">
          <mxGeometry width="160" relative="1" as="geometry">
            <mxPoint x="75" y="1531.41" as="sourcePoint" />
            <mxPoint x="200" y="1530" as="targetPoint" />
          </mxGeometry>
        </mxCell>
        <mxCell id="cTThmHPJOHlPgZETZRBA-81" value="마이페이지" style="ellipse;whiteSpace=wrap;html=1;" vertex="1" parent="1">
          <mxGeometry x="170" y="1500" width="140" height="70" as="geometry" />
        </mxCell>
        <mxCell id="cTThmHPJOHlPgZETZRBA-84" value="내정보 조회" style="ellipse;whiteSpace=wrap;html=1;" vertex="1" parent="1">
          <mxGeometry x="430" y="1460" width="140" height="70" as="geometry" />
        </mxCell>
        <mxCell id="cTThmHPJOHlPgZETZRBA-85" value="내가 좋아요 누른&lt;br&gt;게시글 조회" style="ellipse;whiteSpace=wrap;html=1;" vertex="1" parent="1">
          <mxGeometry x="430" y="1550" width="140" height="70" as="geometry" />
        </mxCell>
        <mxCell id="cTThmHPJOHlPgZETZRBA-86" value="회원 탈퇴" style="ellipse;whiteSpace=wrap;html=1;" vertex="1" parent="1">
          <mxGeometry x="430" y="1650" width="140" height="70" as="geometry" />
        </mxCell>
        <mxCell id="cTThmHPJOHlPgZETZRBA-87" value="&amp;lt;&amp;lt; extend &amp;gt;&amp;gt;" style="endArrow=open;endSize=12;dashed=1;html=1;rounded=0;entryX=1;entryY=0.5;entryDx=0;entryDy=0;" edge="1" parent="1" target="cTThmHPJOHlPgZETZRBA-81">
          <mxGeometry x="-0.1171" y="4" width="160" relative="1" as="geometry">
            <mxPoint x="430" y="1500" as="sourcePoint" />
            <mxPoint x="195" y="1413.59" as="targetPoint" />
            <mxPoint as="offset" />
          </mxGeometry>
        </mxCell>
        <mxCell id="cTThmHPJOHlPgZETZRBA-88" value="&amp;lt;&amp;lt; extend &amp;gt;&amp;gt;" style="endArrow=open;endSize=12;dashed=1;html=1;rounded=0;entryX=1.007;entryY=0.654;entryDx=0;entryDy=0;entryPerimeter=0;" edge="1" parent="1" target="cTThmHPJOHlPgZETZRBA-81">
          <mxGeometry x="-0.1171" y="4" width="160" relative="1" as="geometry">
            <mxPoint x="430" y="1585" as="sourcePoint" />
            <mxPoint x="310" y="1620" as="targetPoint" />
            <mxPoint as="offset" />
          </mxGeometry>
        </mxCell>
        <mxCell id="cTThmHPJOHlPgZETZRBA-89" value="&amp;lt;&amp;lt; extend &amp;gt;&amp;gt;" style="endArrow=open;endSize=12;dashed=1;html=1;rounded=0;entryX=0.94;entryY=0.805;entryDx=0;entryDy=0;entryPerimeter=0;" edge="1" parent="1" target="cTThmHPJOHlPgZETZRBA-81">
          <mxGeometry x="-0.1171" y="4" width="160" relative="1" as="geometry">
            <mxPoint x="429" y="1679" as="sourcePoint" />
            <mxPoint x="310" y="1640" as="targetPoint" />
            <mxPoint as="offset" />
          </mxGeometry>
        </mxCell>
        <mxCell id="cTThmHPJOHlPgZETZRBA-90" value="자유게시판 목록 조회" style="ellipse;whiteSpace=wrap;html=1;" vertex="1" parent="1">
          <mxGeometry x="170" y="1660" width="140" height="70" as="geometry" />
        </mxCell>
        <mxCell id="cTThmHPJOHlPgZETZRBA-91" value="자유게시판 상세 조회" style="ellipse;whiteSpace=wrap;html=1;" vertex="1" parent="1">
          <mxGeometry x="170" y="1754" width="140" height="70" as="geometry" />
        </mxCell>
        <mxCell id="cTThmHPJOHlPgZETZRBA-92" value="자유게시판 글 작성" style="ellipse;whiteSpace=wrap;html=1;" vertex="1" parent="1">
          <mxGeometry x="170" y="1850" width="140" height="70" as="geometry" />
        </mxCell>
        <mxCell id="cTThmHPJOHlPgZETZRBA-93" value="" style="endArrow=open;endFill=1;endSize=12;html=1;rounded=0;entryX=0;entryY=0.286;entryDx=0;entryDy=0;entryPerimeter=0;" edge="1" parent="1" target="cTThmHPJOHlPgZETZRBA-90">
          <mxGeometry width="160" relative="1" as="geometry">
            <mxPoint x="80" y="1560" as="sourcePoint" />
            <mxPoint x="169" y="1600" as="targetPoint" />
          </mxGeometry>
        </mxCell>
        <mxCell id="cTThmHPJOHlPgZETZRBA-94" value="" style="endArrow=open;endFill=1;endSize=12;html=1;rounded=0;entryX=0;entryY=0.5;entryDx=0;entryDy=0;" edge="1" parent="1" target="cTThmHPJOHlPgZETZRBA-92">
          <mxGeometry width="160" relative="1" as="geometry">
            <mxPoint x="60" y="1570" as="sourcePoint" />
            <mxPoint x="150" y="1690" as="targetPoint" />
          </mxGeometry>
        </mxCell>
        <mxCell id="cTThmHPJOHlPgZETZRBA-95" value="" style="endArrow=open;endFill=1;endSize=12;html=1;rounded=0;entryX=-0.001;entryY=0.319;entryDx=0;entryDy=0;entryPerimeter=0;" edge="1" parent="1" target="cTThmHPJOHlPgZETZRBA-91">
          <mxGeometry width="160" relative="1" as="geometry">
            <mxPoint x="70" y="1570" as="sourcePoint" />
            <mxPoint x="180" y="1780" as="targetPoint" />
          </mxGeometry>
        </mxCell>
        <mxCell id="cTThmHPJOHlPgZETZRBA-96" value="게시글 수정" style="ellipse;whiteSpace=wrap;html=1;" vertex="1" parent="1">
          <mxGeometry x="430" y="1754" width="140" height="70" as="geometry" />
        </mxCell>
        <mxCell id="cTThmHPJOHlPgZETZRBA-97" value="게시글 삭제" style="ellipse;whiteSpace=wrap;html=1;" vertex="1" parent="1">
          <mxGeometry x="430" y="1850" width="140" height="70" as="geometry" />
        </mxCell>
        <mxCell id="cTThmHPJOHlPgZETZRBA-98" value="&amp;lt;&amp;lt; extend &amp;gt;&amp;gt;" style="endArrow=open;endSize=12;dashed=1;html=1;rounded=0;entryX=1;entryY=0.5;entryDx=0;entryDy=0;exitX=0;exitY=0.5;exitDx=0;exitDy=0;" edge="1" parent="1" source="cTThmHPJOHlPgZETZRBA-96" target="cTThmHPJOHlPgZETZRBA-91">
          <mxGeometry x="-0.1171" y="4" width="160" relative="1" as="geometry">
            <mxPoint x="430" y="1815" as="sourcePoint" />
            <mxPoint x="303" y="1692" as="targetPoint" />
            <mxPoint as="offset" />
          </mxGeometry>
        </mxCell>
        <mxCell id="cTThmHPJOHlPgZETZRBA-99" value="&amp;lt;&amp;lt; extend &amp;gt;&amp;gt;" style="endArrow=open;endSize=12;dashed=1;html=1;rounded=0;entryX=1;entryY=0.5;entryDx=0;entryDy=0;exitX=0;exitY=0.286;exitDx=0;exitDy=0;exitPerimeter=0;" edge="1" parent="1" source="cTThmHPJOHlPgZETZRBA-97">
          <mxGeometry x="-0.1171" y="4" width="160" relative="1" as="geometry">
            <mxPoint x="440" y="1799" as="sourcePoint" />
            <mxPoint x="320" y="1799" as="targetPoint" />
            <mxPoint as="offset" />
          </mxGeometry>
        </mxCell>
        <mxCell id="cTThmHPJOHlPgZETZRBA-100" value="로그인" style="ellipse;whiteSpace=wrap;html=1;" vertex="1" parent="1">
          <mxGeometry y="1780" width="140" height="70" as="geometry" />
        </mxCell>
        <mxCell id="cTThmHPJOHlPgZETZRBA-101" value="" style="endArrow=open;endFill=1;endSize=12;html=1;rounded=0;entryX=0.5;entryY=0;entryDx=0;entryDy=0;" edge="1" parent="1" source="cTThmHPJOHlPgZETZRBA-66" target="cTThmHPJOHlPgZETZRBA-100">
          <mxGeometry width="160" relative="1" as="geometry">
            <mxPoint x="10.5" y="1666.41" as="sourcePoint" />
            <mxPoint x="109.5" y="1660" as="targetPoint" />
          </mxGeometry>
        </mxCell>
      </root>
    </mxGraphModel>
  </diagram>
</mxfile>
